<svg width="21" height="21" viewBox="0 0 21 21" fill="none" xmlns="http://www.w3.org/2000/svg">
<path d="M19.6875 10.5C19.6875 15.5715 15.5761 19.6875 10.5 19.6875C5.42391 19.6875 1.3125 15.5715 1.3125 10.5C1.3125 5.4239 5.42391 1.3125 10.5 1.3125C15.5761 1.3125 19.6875 5.4239 19.6875 10.5Z" fill="#283544"/>
<path d="M14.8064 8.17516C14.7562 8.20441 13.5628 8.82163 13.5628 10.1902C13.619 11.7509 15.0689 12.2982 15.0938 12.2982C15.0689 12.3275 14.8749 13.0438 14.3001 13.7947C13.844 14.4416 13.3378 15.0938 12.569 15.0938C11.8378 15.0938 11.5753 14.6626 10.7315 14.6626C9.82539 14.6626 9.56901 15.0938 8.87526 15.0938C8.1065 15.0938 7.56275 14.4066 7.08177 13.7659C6.45691 12.9272 5.92579 11.6111 5.90704 10.3474C5.89441 9.67776 6.03218 9.01952 6.38191 8.46041C6.87552 7.67986 7.75677 7.15 8.71914 7.13253C9.45651 7.10936 10.1128 7.60428 10.5628 7.60428C10.994 7.60428 11.8003 7.13253 12.7125 7.13253C13.1062 7.13291 14.1562 7.24344 14.8064 8.17516ZM10.5004 6.99883C10.3691 6.3873 10.7315 5.77578 11.069 5.38569C11.5003 4.91395 12.1814 4.59375 12.7687 4.59375C12.8062 5.20528 12.5686 5.80503 12.1439 6.24183C11.7628 6.71358 11.1065 7.06872 10.5004 6.99883Z" fill="white"/>
</svg>
