<svg width="25" height="25" viewBox="0 0 25 25" fill="none" xmlns="http://www.w3.org/2000/svg">
<g opacity="0.48">
<path fill-rule="evenodd" clip-rule="evenodd" d="M12.5 25C5.59609 25 0 19.4039 0 12.5C0 5.59609 5.59609 0 12.5 0C19.4039 0 25 5.59609 25 12.5C25 19.4039 19.4039 25 12.5 25ZM18.7453 12.6711L12.8891 3.125L7.03125 12.6719L12.8891 16.0727L18.7453 12.6711ZM18.75 13.7625L12.8891 17.1617L7.03125 13.7633L12.8891 21.8711L18.75 13.7625Z" fill="#525252"/>
<path d="M12.8896 3.12451V10.0542L18.7467 12.6714L12.8896 3.12451ZM12.8896 17.162V21.8706L18.7506 13.762L12.8896 17.162Z" fill="#525252" fill-opacity="0.298"/>
<path d="M12.8896 16.0716L18.7467 12.6708L12.8896 10.0552V16.0716Z" fill="black" fill-opacity="0.801"/>
<path d="M7.03125 12.6708L12.8891 16.0716V10.0552L7.03125 12.6708Z" fill="#525252" fill-opacity="0.298"/>
</g>
</svg>
