<svg width="8" height="9" viewBox="0 0 8 9" fill="none" xmlns="http://www.w3.org/2000/svg">
<path d="M5.28571 1.36842H6.57143C6.80812 1.36842 7 1.53337 7 1.73684V7.63158C7 7.83505 6.80812 8 6.57143 8H1.42857C1.19188 8 1 7.83505 1 7.63158V1.73684C1 1.53337 1.19188 1.36842 1.42857 1.36842H2.71429M5.28571 1.36842C5.28571 1.57189 5.09384 1.73684 4.85714 1.73684H3.14286C2.90616 1.73684 2.71429 1.57189 2.71429 1.36842M5.28571 1.36842C5.28571 1.16495 5.09384 1 4.85714 1H3.14286C2.90616 1 2.71429 1.16495 2.71429 1.36842" stroke="#6E6E6E" stroke-width="0.5" stroke-linecap="round" stroke-linejoin="round"/>
</svg>
