<svg width="10" height="10" viewBox="0 0 10 10" fill="none" xmlns="http://www.w3.org/2000/svg">
<path fill-rule="evenodd" clip-rule="evenodd" d="M1 3.39402V6.72735C1 6.72735 1 7.33341 1.6 7.33341C2.2 7.33341 6.4 7.33341 6.4 7.33341C6.4 7.33341 7 7.33341 7 6.72735C7 6.12129 7 3.39402 7 3.39402L4 0.666748L1 3.39402Z" stroke="#858585" stroke-width="0.6"/>
<path d="M1.62141 3.41167L3.32817 1.6812C3.70394 1.30022 4.31304 1.28257 4.71024 1.64115L6.33681 3.10958C6.54684 3.29919 6.66671 3.5689 6.66671 3.85185V6C6.66671 6.55228 6.21899 7 5.66671 7H2.33337C1.78109 7 1.33337 6.55228 1.33337 6V4.11388C1.33337 3.85106 1.43685 3.59879 1.62141 3.41167Z" fill="#858585" stroke="#858585"/>
</svg>
