<svg width="290" height="290" viewBox="0 0 290 290" fill="none" xmlns="http://www.w3.org/2000/svg">
<path d="M0 47V13L268.067 290H239.798L0 47Z" fill="url(#paint0_linear_1_1033)"/>
<path d="M280.74 275L12.6723 0H43.3782L290 257V275H280.74Z" fill="url(#paint1_linear_1_1033)"/>
<path d="M240.286 0H271.479L171.563 106L154.992 89L240.286 0Z" fill="url(#paint2_linear_1_1033)"/>
<path d="M185.21 118.5L287.076 13.5L289.513 10.5V45.5L201.782 136.5L185.21 118.5Z" fill="url(#paint3_linear_1_1033)"/>
<path d="M260.756 101.5L289.513 72V73L290 231.5L260.756 200V101.5Z" fill="url(#paint4_linear_1_1033)"/>
<path d="M242.723 121L215.916 149L242.723 182V121Z" fill="url(#paint5_linear_1_1033)"/>
<path d="M18.0336 290L115.513 190L131.597 206.5L46.7899 290H18.0336Z" fill="url(#paint6_linear_1_1033)"/>
<path d="M102.353 177.5L86.7563 160.5L0 251.5V278L102.353 177.5Z" fill="url(#paint7_linear_1_1033)"/>
<path d="M0 71V226.5L27.2941 198.5L25.8319 103.5L0 71Z" fill="url(#paint8_linear_1_1033)"/>
<path d="M45.8151 177.5V122.5L72.1345 149L45.8151 177.5Z" fill="url(#paint9_linear_1_1033)"/>
<path d="M280.74 275L12.6723 0H43.3782L290 257V275H280.74Z" fill="#555555"/>
<path d="M0 47V13L268.067 290H239.798L0 47Z" fill="#555555"/>
<ellipse cx="144.756" cy="29" rx="14.1345" ry="14.5" fill="#D9D9D9"/>
<ellipse cx="144.756" cy="252" rx="14.1345" ry="14.5" fill="#D9D9D9"/>
<path d="M0 226.5V71L25.8319 103L27.2941 198.5L0 226.5Z" fill="#555555"/>
<path d="M289.513 71.5L290 231.5L260.756 200V101.5L289.513 71.5Z" fill="#555555"/>
<defs>
<linearGradient id="paint0_linear_1_1033" x1="140.857" y1="-5.5" x2="145.217" y2="289.997" gradientUnits="userSpaceOnUse">
<stop stop-color="#EDEDED"/>
<stop offset="0.695" stop-color="#878787"/>
</linearGradient>
<linearGradient id="paint1_linear_1_1033" x1="140.857" y1="-5.5" x2="145.217" y2="289.997" gradientUnits="userSpaceOnUse">
<stop stop-color="#EDEDED"/>
<stop offset="0.695" stop-color="#878787"/>
</linearGradient>
<linearGradient id="paint2_linear_1_1033" x1="140.857" y1="-5.5" x2="145.217" y2="289.997" gradientUnits="userSpaceOnUse">
<stop stop-color="#EDEDED"/>
<stop offset="0.695" stop-color="#878787"/>
</linearGradient>
<linearGradient id="paint3_linear_1_1033" x1="140.857" y1="-5.5" x2="145.217" y2="289.997" gradientUnits="userSpaceOnUse">
<stop stop-color="#EDEDED"/>
<stop offset="0.695" stop-color="#878787"/>
</linearGradient>
<linearGradient id="paint4_linear_1_1033" x1="140.857" y1="-5.5" x2="145.217" y2="289.997" gradientUnits="userSpaceOnUse">
<stop stop-color="#EDEDED"/>
<stop offset="0.695" stop-color="#878787"/>
</linearGradient>
<linearGradient id="paint5_linear_1_1033" x1="140.857" y1="-5.5" x2="145.217" y2="289.997" gradientUnits="userSpaceOnUse">
<stop stop-color="#EDEDED"/>
<stop offset="0.695" stop-color="#878787"/>
</linearGradient>
<linearGradient id="paint6_linear_1_1033" x1="140.857" y1="-5.5" x2="145.217" y2="289.997" gradientUnits="userSpaceOnUse">
<stop stop-color="#EDEDED"/>
<stop offset="0.695" stop-color="#878787"/>
</linearGradient>
<linearGradient id="paint7_linear_1_1033" x1="140.857" y1="-5.5" x2="145.217" y2="289.997" gradientUnits="userSpaceOnUse">
<stop stop-color="#EDEDED"/>
<stop offset="0.695" stop-color="#878787"/>
</linearGradient>
<linearGradient id="paint8_linear_1_1033" x1="140.857" y1="-5.5" x2="145.217" y2="289.997" gradientUnits="userSpaceOnUse">
<stop stop-color="#EDEDED"/>
<stop offset="0.695" stop-color="#878787"/>
</linearGradient>
<linearGradient id="paint9_linear_1_1033" x1="140.857" y1="-5.5" x2="145.217" y2="289.997" gradientUnits="userSpaceOnUse">
<stop stop-color="#EDEDED"/>
<stop offset="0.695" stop-color="#878787"/>
</linearGradient>
</defs>
</svg>
