<svg width="70" height="70" viewBox="0 0 70 70" fill="none" xmlns="http://www.w3.org/2000/svg">
<path fill-rule="evenodd" clip-rule="evenodd" d="M8.8335 35C7.17664 35 5.8335 36.3431 5.8335 38L5.8335 58.25C5.8335 59.9069 7.17664 61.25 8.8335 61.25H14.5002C16.157 61.25 17.5002 59.9069 17.5002 58.25V38C17.5002 36.3431 16.157 35 14.5002 35H8.8335Z" stroke="#DDDDDD" stroke-width="5" stroke-linecap="round"/>
<path fill-rule="evenodd" clip-rule="evenodd" d="M32.1665 8.75C30.5097 8.75 29.1665 10.0931 29.1665 11.75L29.1665 58.25C29.1665 59.9069 30.5097 61.25 32.1665 61.25H37.8332C39.49 61.25 40.8332 59.9069 40.8332 58.25V11.75C40.8332 10.0931 39.49 8.75 37.8332 8.75H32.1665Z" stroke="#DDDDDD" stroke-width="5" stroke-linecap="round"/>
<path fill-rule="evenodd" clip-rule="evenodd" d="M55.5 20.4165C53.8431 20.4165 52.5 21.7596 52.5 23.4165L52.5 58.2498C52.5 59.9067 53.8431 61.2498 55.5 61.2498H61.1667C62.8235 61.2498 64.1667 59.9067 64.1667 58.2498V23.4165C64.1667 21.7596 62.8235 20.4165 61.1667 20.4165H55.5Z" stroke="#DDDDDD" stroke-width="5" stroke-linecap="round"/>
</svg>
