<svg width="70" height="70" viewBox="0 0 70 70" fill="none" xmlns="http://www.w3.org/2000/svg">
<path d="M32.0835 23.3332L26.6725 20.6276C26.3947 20.4888 26.0885 20.4165 25.778 20.4165H21.2453C20.7148 20.4165 20.2061 20.6272 19.831 21.0023L15.1693 25.6641C14.7942 26.0391 14.5835 26.5478 14.5835 27.0783L14.5835 45.5961C14.5835 46.2648 14.9177 46.8893 15.4741 47.2602L30.841 57.5048C31.5779 57.9961 32.5503 57.9442 33.2307 57.3772L49.5835 43.7498" stroke="white" stroke-width="3"/>
<path fill-rule="evenodd" clip-rule="evenodd" d="M40.1357 34.9557C39.5323 34.1477 38.4218 33.9154 37.5451 34.4136L27.5747 40.0802C26.7921 40.525 25.8088 40.3921 25.1723 39.7556L21.9651 36.5484C21.1335 35.7168 21.1955 34.3507 22.099 33.5978L37.3602 20.8801C37.7197 20.5805 38.1727 20.4165 38.6406 20.4165L43.2777 20.4165C43.5882 20.4165 43.8944 20.4888 44.1721 20.6276L54.3109 25.6971C54.9885 26.0358 55.4165 26.7284 55.4165 27.4859L55.4165 49.3961C55.4165 51.3202 52.9654 52.1345 51.8141 50.5929L40.1357 34.9557Z" stroke="white" stroke-width="3"/>
<path d="M2.91667 49.5835V23.3335" stroke="white" stroke-linecap="round"/>
<path d="M2.91667 49.5835V23.3335" stroke="white" stroke-width="5" stroke-linecap="round"/>
<path d="M67.0832 49.5835V23.3335" stroke="white" stroke-width="5" stroke-linecap="round"/>
</svg>
